<?xml version="1.0" standalone="no"?>
<!DOCTYPE svg PUBLIC "-//W3C//DTD SVG 20010904//EN"
 "http://www.w3.org/TR/2001/REC-SVG-20010904/DTD/svg10.dtd">
<svg version="1.0" xmlns="http://www.w3.org/2000/svg"
 width="600.000000pt" height="593.000000pt" viewBox="0 0 600.000000 593.000000"
 preserveAspectRatio="xMidYMid meet">

<g transform="translate(0.000000,593.000000) scale(0.100000,-0.100000)"
fill="#000000" stroke="none">
<path d="M3290 5691 l0 -229 -97 -6 c-116 -9 -282 -32 -373 -52 -91 -21 -233
-64 -247 -76 -14 -11 -65 -158 -55 -159 4 0 -60 -18 -143 -39 -209 -54 -439
-133 -483 -167 -291 -220 -558 -581 -707 -953 -104 -262 -146 -473 -152 -777
-7 -288 18 -486 92 -730 26 -85 125 -337 130 -331 2 2 -17 62 -41 133 -135
405 -148 834 -39 1260 157 609 575 1130 1138 1419 523 268 1144 318 1701 136
l120 -39 -419 419 c-231 231 -421 420 -422 420 -2 0 -3 -103 -3 -229z"/>
<path d="M3436 4891 c-39 -39 -39 -40 -15 -45 13 -3 69 -15 124 -27 402 -85
798 -302 1100 -604 592 -590 804 -1468 545 -2256 -22 -67 -38 -124 -36 -126 2
-2 189 184 416 414 l413 418 -225 3 -225 2 -12 139 c-10 124 -33 288 -46 332
-3 8 -32 31 -65 49 -37 21 -62 42 -65 55 -3 11 -9 49 -15 85 -24 141 -116 473
-148 535 -81 157 -314 420 -512 578 -319 256 -749 437 -1140 482 -54 6 -56 5
-94 -34z"/>
<path d="M1910 3748 c-36 -59 -70 -187 -77 -287 l-6 -95 59 60 c32 33 83 75
112 94 28 18 52 38 52 43 0 11 -110 217 -116 217 -2 0 -13 -15 -24 -32z"/>
<path d="M2337 3647 c-36 -9 -45 -15 -37 -23 9 -9 3 -17 -23 -33 -19 -11 -56
-44 -83 -73 l-48 -52 59 -20 60 -21 -3 -70 c-2 -38 0 -98 3 -132 l7 -63 43 26
c46 26 54 26 93 -9 l22 -20 0 24 c0 18 -12 34 -43 56 -131 92 -128 301 7 391
46 30 47 32 20 31 -16 0 -51 -6 -77 -12z"/>
<path d="M3252 3176 c-63 -21 -107 -59 -136 -118 -56 -113 -16 -242 95 -302
45 -25 60 -28 172 -30 143 -3 190 -19 249 -84 95 -106 68 -280 -56 -357 l-49
-30 -756 -8 c-850 -8 -811 -4 -880 -83 -84 -96 -75 -238 21 -319 67 -57 34
-55 865 -55 850 0 828 -1 968 65 140 67 251 175 324 315 57 109 75 184 75 320
1 200 -60 347 -204 490 -93 93 -197 155 -315 186 -84 22 -317 28 -373 10z"/>
<path d="M2152 543 c190 -190 305 -298 309 -290 3 6 17 106 29 221 l24 208 68
-6 c79 -8 348 -9 356 -2 3 3 0 12 -7 20 -10 11 -44 13 -194 9 -283 -9 -535 26
-775 106 l-113 37 303 -303z"/>
</g>
</svg>
